<svg width="141" height="43" viewBox="0 0 141 43" fill="none" xmlns="http://www.w3.org/2000/svg">
<g clip-path="url(#clip0_238_67)">
<path d="M45 38.9987C45 38.9994 44.9993 39 44.9987 39H10.0013C10.0006 39 10 38.9994 10 38.9987V4.0013C10 4.00065 10.0006 4 10.0013 4H44.999C44.9997 4 45.0003 4.00065 45.0003 4.0013V38.9987H45Z" fill="white"/>
<path d="M44.4163 38.4155C44.4163 38.4162 44.4157 38.4168 44.415 38.4168H10.5843C10.5837 38.4168 10.583 38.4162 10.583 38.4155V4.58479C10.583 4.58414 10.5837 4.5835 10.5843 4.5835H44.4154C44.416 4.5835 44.4167 4.58414 44.4167 4.58479V38.4155H44.4163Z" fill="#5D5D5D"/>
<path d="M19.8197 30.6928C19.8197 30.7184 19.8346 30.7541 19.8524 30.7719L20.4315 31.351C20.4497 31.3692 20.4853 31.3838 20.5106 31.3838H22.4923C22.5179 31.3838 22.5535 31.3689 22.5714 31.351L23.1505 30.7719C23.1686 30.7538 23.1832 30.7181 23.1832 30.6928V24.4048C23.1832 24.3792 23.1985 24.3439 23.2169 24.3264L25.7347 21.9218C25.7531 21.9043 25.78 21.9069 25.7943 21.9283L32.1555 31.3459C32.1698 31.3669 32.2025 31.3844 32.2278 31.3844H35.0353C35.0609 31.3844 35.0913 31.3659 35.103 31.3433L35.6124 30.3561C35.6241 30.3334 35.6218 30.2978 35.6073 30.2767L28.1665 19.4916C28.1519 19.4705 28.1548 19.4387 28.173 19.4206L35.0168 12.6089C35.0349 12.5907 35.0495 12.5554 35.0495 12.5298V12.4041C35.0495 12.3784 35.0411 12.3386 35.0311 12.3149L34.6363 11.4072C34.6263 11.3839 34.5968 11.3647 34.5715 11.3647H31.7965C31.7709 11.3647 31.7352 11.3797 31.7174 11.3975L23.2166 19.9303C23.1985 19.9485 23.1839 19.9423 23.1839 19.9167V12.0887C23.1839 12.0631 23.1696 12.0272 23.1521 12.0084L22.584 11.3991C22.5665 11.3803 22.5315 11.3651 22.5059 11.3651H20.5106C20.485 11.3651 20.45 11.3803 20.4325 11.3991L19.8508 12.0272C19.8333 12.0459 19.8193 12.0819 19.8193 12.1075V30.6928H19.8197Z" fill="white"/>
</g>
<path d="M55.6524 28V14.1818H57.7373V20.7805H57.9059L63.7017 14.1818H66.3264L60.7532 20.4027L66.3466 28H63.8367L59.3701 21.8263L57.7373 23.7021V28H55.6524ZM68.2696 28V14.1818H76.9329V15.9766H70.3544V20.1868H76.4809V21.9748H70.3544V26.2053H77.0139V28H68.2696ZM79.7178 28V14.1818H84.6432C85.7138 14.1818 86.6022 14.3662 87.3084 14.7351C88.0191 15.1039 88.5498 15.6145 88.9007 16.2667C89.2516 16.9144 89.427 17.6634 89.427 18.5135C89.427 19.3591 89.2493 20.1036 88.894 20.7468C88.5431 21.3855 88.0123 21.8826 87.3016 22.2379C86.5954 22.5933 85.707 22.771 84.6365 22.771H80.9053V20.9762H84.4476C85.1223 20.9762 85.6711 20.8795 86.0939 20.6861C86.5212 20.4927 86.8338 20.2115 87.0317 19.8427C87.2297 19.4738 87.3286 19.0308 87.3286 18.5135C87.3286 17.9917 87.2274 17.5397 87.025 17.1573C86.8271 16.775 86.5145 16.4826 86.0871 16.2802C85.6643 16.0733 85.1088 15.9698 84.4206 15.9698H81.8027V28H79.7178ZM86.5392 21.7656L89.9533 28H87.5783L84.2317 21.7656H86.5392ZM93.1312 28H90.9181L95.8908 14.1818H98.2995L103.272 28H101.059L97.1525 16.6918H97.0445L93.1312 28ZM93.5023 22.5888H100.681V24.343H93.5023V22.5888ZM112.693 17.8118C112.621 17.1731 112.324 16.6783 111.802 16.3274C111.28 15.9721 110.624 15.7944 109.832 15.7944C109.265 15.7944 108.775 15.8844 108.361 16.0643C107.947 16.2397 107.626 16.4826 107.396 16.793C107.171 17.0988 107.059 17.4474 107.059 17.8388C107.059 18.1671 107.135 18.4505 107.288 18.6889C107.446 18.9273 107.65 19.1275 107.902 19.2894C108.159 19.4469 108.433 19.5795 108.726 19.6875C109.018 19.791 109.299 19.8764 109.569 19.9439L110.918 20.2947C111.359 20.4027 111.811 20.5489 112.275 20.7333C112.738 20.9177 113.167 21.1606 113.563 21.462C113.959 21.7634 114.278 22.1367 114.521 22.582C114.769 23.0273 114.892 23.5604 114.892 24.1811C114.892 24.9638 114.69 25.6587 114.285 26.266C113.885 26.8732 113.302 27.3523 112.538 27.7031C111.778 28.054 110.858 28.2294 109.778 28.2294C108.744 28.2294 107.848 28.0652 107.093 27.7369C106.337 27.4085 105.746 26.9429 105.318 26.3402C104.891 25.733 104.655 25.0133 104.61 24.1811H106.701C106.742 24.6804 106.904 25.0965 107.187 25.4293C107.475 25.7577 107.842 26.0028 108.287 26.1648C108.737 26.3222 109.229 26.4009 109.765 26.4009C110.354 26.4009 110.878 26.3087 111.337 26.1243C111.8 25.9354 112.164 25.6745 112.43 25.3416C112.695 25.0043 112.828 24.6107 112.828 24.1609C112.828 23.7515 112.711 23.4164 112.477 23.1555C112.248 22.8946 111.935 22.6787 111.539 22.5078C111.148 22.3369 110.705 22.1862 110.21 22.0558L108.577 21.6104C107.471 21.3091 106.593 20.866 105.946 20.2812C105.302 19.6965 104.981 18.9228 104.981 17.9602C104.981 17.1641 105.197 16.4691 105.629 15.8754C106.06 15.2816 106.645 14.8205 107.383 14.4922C108.121 14.1593 108.953 13.9929 109.879 13.9929C110.815 13.9929 111.64 14.1571 112.356 14.4854C113.075 14.8138 113.642 15.2659 114.056 15.8416C114.47 16.4129 114.686 17.0696 114.704 17.8118H112.693Z" fill="#DFDFDF"/>
<defs>
<clipPath id="clip0_238_67">
<rect width="35" height="35" fill="white" transform="translate(10 4)"/>
</clipPath>
</defs>
</svg>
