<svg width="1379" height="2500" viewBox="0 0 1379 2500" fill="none" xmlns="http://www.w3.org/2000/svg">
<path d="M536.049 1711.22L528.934 1714.99C528.108 1715.44 527.489 1716.2 527.204 1717.11C526.918 1718.02 526.988 1719.01 527.399 1719.87C536.119 1738.36 549.233 1741.64 567.439 1748.2C590.18 1756.36 608.735 1769.33 631.405 1777.98C640.962 1781.61 647.379 1789.84 658.122 1793.68C693.418 1806.09 726.343 1824.58 744.061 1832.39C790.89 1853.18 827.256 1870.59 853.158 1884.64C862.924 1890.01 873.318 1888.4 883.293 1894.68C898.151 1904.17 927.727 1929.14 944.469 1914.21C944.806 1913.91 945.39 1913.8 946.132 1913.88C946.874 1913.97 947.735 1914.26 948.584 1914.7L952.002 1916.45" stroke="#33D700" stroke-width="13.9511"/>
<path d="M998.459 1855.69C996.692 1851.08 996.692 1846.36 998.459 1841.53C998.617 1841.12 998.691 1840.68 998.678 1840.23C998.664 1839.79 998.563 1839.36 998.381 1838.96C998.198 1838.57 997.938 1838.21 997.616 1837.92C997.294 1837.63 996.916 1837.41 996.506 1837.27C988.136 1834.55 981.858 1829.11 973.417 1827.51C945.515 1822.28 920.891 1803.37 901.987 1795C852.275 1772.87 820.978 1757.64 808.096 1749.31C799.4 1743.78 790.936 1740.43 782.705 1739.27C765.545 1736.82 753.268 1732.08 738.341 1730.41" stroke="#5BFF0E" stroke-width="13.9511"/>
<path d="M536.049 1711.22L528.934 1714.99C528.108 1715.44 527.489 1716.2 527.204 1717.11C526.918 1718.02 526.988 1719.01 527.4 1719.87C536.119 1738.36 549.233 1741.64 567.439 1748.2C590.18 1756.36 608.735 1769.33 631.405 1777.98C640.962 1781.61 647.379 1789.84 658.122 1793.68C693.418 1806.09 726.343 1824.58 744.061 1832.39C790.89 1853.18 827.256 1870.59 853.159 1884.64C862.924 1890.01 873.318 1888.4 883.293 1894.68C898.151 1904.17 927.727 1929.14 944.469 1914.21C944.806 1913.91 945.39 1913.8 946.132 1913.88C946.874 1913.97 947.735 1914.26 948.584 1914.7L952.002 1916.45C914.985 1946.3 876.48 1974.11 836.487 1999.87C753.757 2053.1 722.925 2126.34 764.429 2224C766.103 2227.9 765.011 2228.93 761.151 2227.07C690 2192.38 646.193 2137.85 629.731 2063.49C616.896 2005.24 643.612 1903.68 570.927 1878.57C511.565 1858.13 451.575 1895.31 442.367 1959.28C441.623 1964.44 439.554 1965.04 436.159 1961.09C352.801 1864.62 333.827 1738.08 365.566 1616.57C366.589 1612.71 368.24 1612.43 370.519 1615.73C406.792 1668.39 476.269 1695.39 536.049 1711.22Z" fill="#33D700"/>
<path d="M998.459 1855.69C996.692 1851.08 996.692 1846.36 998.459 1841.53C998.617 1841.12 998.691 1840.68 998.678 1840.23C998.664 1839.79 998.563 1839.36 998.381 1838.96C998.198 1838.57 997.938 1838.21 997.616 1837.92C997.294 1837.63 996.916 1837.41 996.506 1837.27C988.136 1834.55 981.858 1829.11 973.417 1827.51C945.515 1822.28 920.891 1803.37 901.987 1795C852.275 1772.87 820.978 1757.64 808.096 1749.31C799.4 1743.78 790.936 1740.43 782.705 1739.27C765.545 1736.82 753.268 1732.08 738.341 1730.41C832.929 1728.66 941.818 1707.67 1019.67 1650.4C1020.09 1650.08 1020.59 1649.88 1021.11 1649.8C1021.63 1649.72 1022.17 1649.77 1022.67 1649.94C1023.17 1650.11 1023.62 1650.4 1023.98 1650.78C1024.35 1651.17 1024.61 1651.63 1024.76 1652.14C1044.52 1725.34 1035.76 1793.19 998.459 1855.69Z" fill="#5BFF0E"/>
<path d="M536.049 1711.22C602.596 1726.85 670.027 1733.24 738.341 1730.41C753.268 1732.08 765.545 1736.82 782.705 1739.27C790.936 1740.43 799.4 1743.78 808.096 1749.31C820.978 1757.64 852.275 1772.87 901.987 1795C920.891 1803.37 945.515 1822.28 973.417 1827.51C981.858 1829.11 988.136 1834.55 996.506 1837.27C996.916 1837.41 997.294 1837.63 997.616 1837.92C997.938 1838.21 998.198 1838.57 998.381 1838.96C998.563 1839.36 998.664 1839.79 998.678 1840.23C998.691 1840.68 998.617 1841.12 998.459 1841.53C996.692 1846.36 996.692 1851.08 998.459 1855.69C985.578 1877.64 970.092 1897.89 952.002 1916.45L948.584 1914.7C947.735 1914.26 946.874 1913.97 946.132 1913.88C945.39 1913.8 944.806 1913.91 944.469 1914.21C927.727 1929.14 898.151 1904.17 883.293 1894.68C873.318 1888.4 862.924 1890.01 853.158 1884.64C827.256 1870.59 790.89 1853.18 744.061 1832.39C726.343 1824.58 693.418 1806.09 658.122 1793.68C647.379 1789.84 640.962 1781.61 631.405 1777.98C608.735 1769.33 590.18 1756.36 567.439 1748.2C549.233 1741.64 536.119 1738.36 527.399 1719.87C526.988 1719.01 526.918 1718.02 527.204 1717.11C527.489 1716.2 528.108 1715.44 528.934 1714.99L536.049 1711.22Z" fill="#47EB00"/>
<path d="M172.295 565.673V325.273H1207.45V565.673H836.088V1550H544.258V565.673H172.295Z" fill="white"/>
</svg>
