<svg width="213" height="55" viewBox="0 0 213 55" fill="none" xmlns="http://www.w3.org/2000/svg">
<g clip-path="url(#clip0_102_1295)">
<mask id="mask0_102_1295" style="mask-type:luminance" maskUnits="userSpaceOnUse" x="0" y="0" width="213" height="55">
<path d="M213 0H0V55H213V0Z" fill="white"/>
</mask>
<g mask="url(#mask0_102_1295)">
<mask id="mask1_102_1295" style="mask-type:luminance" maskUnits="userSpaceOnUse" x="0" y="6" width="45" height="46">
<path d="M45 6.5H0V51.5H45V6.5Z" fill="white"/>
</mask>
<g mask="url(#mask1_102_1295)">
<path fill-rule="evenodd" clip-rule="evenodd" d="M22.4999 28.4642C22.4999 25.8014 24.6585 23.6428 27.3213 23.6428C29.9841 23.6428 32.1427 25.8014 32.1427 28.4642C32.1427 31.127 29.9841 33.2856 27.3213 33.2856C24.6585 33.2856 22.4999 31.127 22.4999 28.4642Z" fill="#D4D4D4"/>
<path fill-rule="evenodd" clip-rule="evenodd" d="M12.8571 38.1071C12.8571 35.4443 15.0157 33.2856 17.6785 33.2856H22.4999V38.1071C22.4999 40.7699 20.3413 42.9285 17.6785 42.9285C15.0157 42.9285 12.8571 40.7699 12.8571 38.1071Z" fill="#D4D4D4"/>
<path fill-rule="evenodd" clip-rule="evenodd" d="M22.4999 13.9999V23.6428H27.3213C29.9841 23.6428 32.1427 21.4842 32.1427 18.8214C32.1427 16.1586 29.9841 13.9999 27.3213 13.9999H22.4999Z" fill="#D4D4D4"/>
<path fill-rule="evenodd" clip-rule="evenodd" d="M12.8571 18.8214C12.8571 21.4842 15.0157 23.6428 17.6785 23.6428H22.4999V13.9999H17.6785C15.0157 13.9999 12.8571 16.1586 12.8571 18.8214Z" fill="#D4D4D4"/>
<path fill-rule="evenodd" clip-rule="evenodd" d="M12.8571 28.4642C12.8571 31.127 15.0157 33.2856 17.6785 33.2856H22.4999V23.6428H17.6785C15.0157 23.6428 12.8571 25.8014 12.8571 28.4642Z" fill="#D4D4D4"/>
</g>
</g>
<path d="M68.6499 36V19.2727H79.3658V21.8129H71.68V26.354H78.6307V28.8942H71.68V36H68.6499ZM85.1566 19.2727V36H82.1264V19.2727H85.1566ZM99.6439 24.6143C99.5078 24.1733 99.3199 23.7785 99.0803 23.43C98.8462 23.0761 98.5631 22.7739 98.2309 22.5234C97.9042 22.273 97.5285 22.0851 97.1038 21.9599C96.6791 21.8292 96.2162 21.7638 95.7153 21.7638C94.8169 21.7638 94.0164 21.9898 93.314 22.4418C92.6116 22.8937 92.0589 23.558 91.656 24.4347C91.2585 25.3059 91.0597 26.3677 91.0597 27.62C91.0597 28.8833 91.2585 29.9532 91.656 30.8299C92.0535 31.7066 92.6061 32.3736 93.314 32.831C94.0219 33.2829 94.8441 33.5089 95.7806 33.5089C96.6301 33.5089 97.3651 33.3455 97.9859 33.0188C98.6121 32.6921 99.094 32.2293 99.4316 31.6303C99.7691 31.0259 99.9379 30.3181 99.9379 29.5067L100.624 29.6129H96.0828V27.2443H102.87V29.2536C102.87 30.6856 102.565 31.9244 101.955 32.9698C101.345 34.0153 100.507 34.8211 99.4397 35.3874C98.3725 35.9483 97.1473 36.2287 95.7643 36.2287C94.2233 36.2287 92.8702 35.8829 91.705 35.1914C90.5452 34.4944 89.6386 33.5062 88.9852 32.2266C88.3372 30.9415 88.0132 29.4169 88.0132 27.6527C88.0132 26.3023 88.2038 25.0962 88.585 24.0344C88.9716 22.9727 89.5106 22.0715 90.2021 21.331C90.8937 20.585 91.705 20.0187 92.6361 19.6321C93.5672 19.2401 94.58 19.044 95.6745 19.044C96.6001 19.044 97.4632 19.1802 98.2636 19.4524C99.064 19.7192 99.7746 20.1004 100.395 20.5959C101.022 21.0914 101.536 21.6795 101.939 22.3601C102.342 23.0407 102.606 23.7921 102.731 24.6143H99.6439ZM105.8 19.2727H109.508L114.474 31.3935H114.67L119.636 19.2727H123.344V36H120.437V24.5082H120.281L115.659 35.951H113.486L108.863 24.4837H108.708V36H105.8V19.2727ZM128.792 36H125.558L131.447 19.2727H135.187L141.084 36H137.85L133.382 22.7031H133.252L128.792 36ZM128.898 29.4414H137.719V31.8754H128.898V29.4414Z" fill="#D4D4D4"/>
</g>
<defs>
<clipPath id="clip0_102_1295">
<rect width="213" height="55" fill="white"/>
</clipPath>
</defs>
</svg>
