<svg width="179" height="55" viewBox="0 0 179 55" fill="none" xmlns="http://www.w3.org/2000/svg">
<path d="M29.2905 5.50013C25.8145 5.50013 22.9998 8.31479 22.9998 11.7908V15.4861H32.4358C33.2938 15.4861 33.9999 16.7421 33.9999 17.6001H18.2906C14.8147 17.6001 12 20.4148 12 23.8908V32.2094C12 35.6853 14.8147 38.5 18.2906 38.5H20.886V32.6047C20.886 29.1287 23.6835 26.3141 27.1594 26.3141H38.7094C42.1853 26.3141 45 23.5166 45 20.0406V11.7906C45 8.31466 42.1853 5.5 38.7094 5.5L29.2905 5.50013ZM27.7092 9.04079C28.5892 9.04079 29.2905 9.30685 29.2905 10.6048C29.2905 11.9028 28.5892 12.5642 27.7092 12.5642C26.8512 12.5642 26.1452 11.9028 26.1452 10.6048C26.1452 9.30685 26.8512 9.04079 27.7092 9.04079Z" fill="#DFDFDF"/>
<path d="M47.1098 16.5V22.3953C47.1098 25.8713 44.3167 28.686 40.8407 28.686H29.2907C25.8147 28.686 23 31.4791 23 34.9551V43.2051C22.9992 44.8741 23.6616 46.4751 24.8414 47.6556C26.0212 48.8362 27.6217 49.4996 29.2907 49.5H38.7093C40.3783 49.4996 41.9788 48.8362 43.1586 47.6556C44.3383 46.4751 45.0007 44.8741 45 43.2051V39.5098H35.5598C34.7018 39.5098 34 38.258 34 37.4H49.7093C51.3783 37.3997 52.9788 36.7362 54.1586 35.5557C55.3384 34.3751 56.0008 32.7742 56 31.1052V22.7907C55.9993 19.3168 53.1833 16.5008 49.7093 16.5H47.1098ZM25.9047 26.4301L25.8961 26.4387C25.9224 26.4334 25.9512 26.4352 25.9777 26.4301H25.9047ZM40.2907 42.436C41.1487 42.436 41.8547 43.0974 41.8547 44.3954C41.8535 45.258 41.1533 45.9563 40.2907 45.9551C39.4107 45.9551 38.7094 45.6934 38.7094 44.3954C38.7094 43.0974 39.4107 42.436 40.2907 42.436Z" fill="#DFDFDF"/>
<path d="M70.3792 36V19.2149H76.6736C77.9631 19.2149 79.045 19.4553 79.9192 19.9361C80.7989 20.417 81.4627 21.0781 81.9108 21.9195C82.3643 22.7555 82.591 23.7062 82.591 24.7717C82.591 25.8481 82.3643 26.8043 81.9108 27.6402C81.4573 28.4762 80.7879 29.1346 79.9028 29.6154C79.0176 30.0908 77.9276 30.3285 76.6326 30.3285H72.461V27.8287H76.2229C76.9769 27.8287 77.5943 27.6976 78.0751 27.4353C78.5559 27.1731 78.9111 26.8125 79.1406 26.3535C79.3755 25.8945 79.493 25.3673 79.493 24.7717C79.493 24.1761 79.3755 23.6516 79.1406 23.1981C78.9111 22.7446 78.5532 22.3922 78.0669 22.1408C77.5861 21.884 76.9659 21.7556 76.2065 21.7556H73.4199V36H70.3792ZM84.0847 19.2149H87.5188L91.6249 26.6403H91.7887L95.8949 19.2149H99.329L93.2231 29.7384V36H90.1906V29.7384L84.0847 19.2149ZM101.804 21.7638V19.2149H115.196V21.7638H110.008V36H106.992V21.7638H101.804ZM117.778 36V19.2149H120.818V26.3207H128.596V19.2149H131.645V36H128.596V28.8696H120.818V36H117.778ZM149.951 27.6075C149.951 29.416 149.612 30.965 148.934 32.2545C148.262 33.5385 147.344 34.522 146.18 35.205C145.022 35.888 143.708 36.2295 142.238 36.2295C140.768 36.2295 139.452 35.888 138.288 35.205C137.129 34.5166 136.212 33.5303 135.534 32.2463C134.862 30.9568 134.526 29.4105 134.526 27.6075C134.526 25.7989 134.862 24.2526 135.534 22.9686C136.212 21.6791 137.129 20.6929 138.288 20.0099C139.452 19.3269 140.768 18.9854 142.238 18.9854C143.708 18.9854 145.022 19.3269 146.18 20.0099C147.344 20.6929 148.262 21.6791 148.934 22.9686C149.612 24.2526 149.951 25.7989 149.951 27.6075ZM146.893 27.6075C146.893 26.3344 146.694 25.2607 146.295 24.3865C145.902 23.5068 145.355 22.8429 144.656 22.3949C143.957 21.9414 143.151 21.7146 142.238 21.7146C141.326 21.7146 140.52 21.9414 139.82 22.3949C139.121 22.8429 138.572 23.5068 138.173 24.3865C137.78 25.2607 137.583 26.3344 137.583 27.6075C137.583 28.8805 137.78 29.9569 138.173 30.8366C138.572 31.7108 139.121 32.3747 139.82 32.8282C140.52 33.2762 141.326 33.5003 142.238 33.5003C143.151 33.5003 143.957 33.2762 144.656 32.8282C145.355 32.3747 145.902 31.7108 146.295 30.8366C146.694 29.9569 146.893 28.8805 146.893 27.6075ZM166.619 19.2149V36H163.914L156.005 24.5668H155.866V36H152.825V19.2149H155.546L163.447 30.6563H163.595V19.2149H166.619Z" fill="#DFDFDF"/>
</svg>
